<?xml version="1.0" encoding="UTF-8"?>
<!-- Created with Inkscape (http://www.inkscape.org/) -->
<svg width="28.646mm" height="28.646mm" version="1.1" viewBox="0 0 28.646 28.646" xml:space="preserve" xmlns="http://www.w3.org/2000/svg"><g fill="#4d4d4d"><path d="m14.323 3.0587a11.264 11.264 0 0 0-11.264 11.264 11.264 11.264 0 0 0 11.264 11.264 11.264 11.264 0 0 0 11.264-11.264 11.264 11.264 0 0 0-11.264-11.264zm0 7.1148a4.1492 4.1492 0 0 1 4.1491 4.1491 4.1492 4.1492 0 0 1-4.1491 4.1491 4.1492 4.1492 0 0 1-4.1491-4.1491 4.1492 4.1492 0 0 1 4.1491-4.1491z" stroke-width=".26458"/><g stroke-width=".18166"><path d="m11.194 0v11.602a4.1492 4.1492 0 0 1 3.129-1.4289 4.1492 4.1492 0 0 1 3.129 1.4247v-11.598h-6.258zm0 17.043v11.603h6.258v-11.602a4.1492 4.1492 0 0 1-3.129 1.4283 4.1492 4.1492 0 0 1-3.129-1.4289z"/><path transform="rotate(90)" d="m11.194 0h6.258v-11.601a4.1492 4.1492 0 0 1-3.129 1.4273 4.1492 4.1492 0 0 1-3.129-1.4273v11.601zm0-17.047a4.1492 4.1492 0 0 1 3.129-1.4247 4.1492 4.1492 0 0 1 3.129 1.4268v-11.601h-6.258v11.599z"/><path transform="rotate(45)" d="m17.126-14.323v11.61a4.1492 4.1492 0 0 1 0.19513-0.22071 4.1492 4.1492 0 0 1 5.8677 0 4.1492 4.1492 0 0 1 0.19513 0.21998v-11.609h-6.258zm0 17.036v11.61h6.258v-11.609a4.1492 4.1492 0 0 1-0.19513 0.21998 4.1492 4.1492 0 0 1-5.8677 0 4.1492 4.1492 0 0 1-0.19513-0.22071z"/><path transform="rotate(-45)" d="m3.129 5.9324h-6.258v11.61a4.1492 4.1492 0 0 1 0.19513-0.22071 4.1492 4.1492 0 0 1 5.8677 0 4.1492 4.1492 0 0 1 0.19513 0.21048v-11.599zm0 17.047a4.1492 4.1492 0 0 1-0.19513 0.20974 4.1492 4.1492 0 0 1-5.8677 0 4.1492 4.1492 0 0 1-0.19513-0.21998v11.609h6.258v-11.599z"/></g></g></svg>
